<svg id="Calque_2" data-name="Calque 2" xmlns="http://www.w3.org/2000/svg" viewBox="0 0 856.88 214.71"><defs><style>.cls-1{fill:#bdf4b3;}.cls-2{fill:#38e019;}.cls-3{fill:#062256;}</style></defs><title>VinnConsulting</title><path class="cls-1" d="M46.92,224l-.7-.32V223a1.77,1.77,0,0,1,1.34.67C47.42,224,47.1,223.85,46.92,224Z" transform="translate(-46.22 -109.7)"/><path class="cls-2" d="M46.92,224c.11-.31.4-.26.64-.32l32.66,17.2c4.73,2.49,9.49,4.92,14.19,7.47a1.64,1.64,0,0,0,2.47-.45q20.57-23.7,41.2-47.34c22.95-26.17,45.86-52.39,69.56-77.89a156.07,156.07,0,0,1,12.05-12.08c.43-.38.8-.94,1.62-.92a4.76,4.76,0,0,1-1.14,2.51c-3.48,5.4-7.35,10.51-11.25,15.6-13.21,17.25-24.72,35.64-36.17,54.06-23.52,37.82-45.95,76.3-68.16,114.9-1.07,1.87-1,1.87-2.35.16l-54.57-72C47.44,224.61,47.17,224.32,46.92,224Z" transform="translate(-46.22 -109.7)"/><path class="cls-3" d="M364.93,256.57c.07-6.7-.37-12.87,1.12-18.9,2.46-9.92,7.55-17.92,16.85-22.75,9.75-5.07,27.5-3.93,36.38,6.14,4.64,5.26,6.48,11.43,6.65,18.28,0,1-.36,1.22-1.27,1.21-2.68-.05-5.36-.06-8,0-1,0-1.42-.19-1.46-1.33a20.38,20.38,0,0,0-2-8.57c-2.81-5.6-7.49-8.47-13.6-9.3-12.58-1.72-19,6.17-22.1,15.72A34.64,34.64,0,0,0,375.94,248c0,6.48-.25,13,.16,19.42a29.92,29.92,0,0,0,5.73,16.33c4.78,6.44,12.27,8.72,20.81,6.35,7.08-2,11.53-7.48,12.35-15.35.35-3.37.35-3.37,3.78-3.37,1.9,0,3.8.08,5.69,0,1.25-.06,1.48.44,1.47,1.55A26.93,26.93,0,0,1,404.77,299c-9.53,2.13-18.71,1.36-26.67-4.94-7.56-6-11.42-14.08-12.73-23.5C364.69,265.7,365.05,260.84,364.93,256.57Z" transform="translate(-46.22 -109.7)"/><path class="cls-3" d="M666.5,289.47a25.71,25.71,0,0,1-4.28,5.44c-11.2,10.3-29.05,4.79-32.91-10.17A45.88,45.88,0,0,1,628,273.31c0-12.17,0-24.33,0-36.5,0-1.28.27-1.73,1.63-1.67,2.56.11,5.14.12,7.7,0,1.37-.07,1.76.3,1.76,1.71-.06,11.94,0,23.88,0,35.82a39.76,39.76,0,0,0,1,9.79c1.29,5.11,4.14,7.54,9.36,8,7.19.66,13.06-2.31,16.14-8.14a5.5,5.5,0,0,0,.65-2.7c0-14.23,0-28.46,0-42.69,0-1.49.36-1.89,1.83-1.82a72.74,72.74,0,0,0,7.53,0c1.4-.07,1.74.36,1.74,1.74q-.07,28.55,0,57.09c0,1.22-.06,2.45,0,3.68.05.91-.29,1.12-1.14,1.11-2.57-.05-5.14-.07-7.7,0-1,0-1.17-.4-1.22-1.27C667,295,666.73,292.43,666.5,289.47Z" transform="translate(-46.22 -109.7)"/><path class="cls-3" d="M218.51,244.51a27,27,0,0,1,5.77-6.48c8.62-6.61,22.41-5,28.35,3.42a24.39,24.39,0,0,1,4.13,14.08c.18,14.06.09,28.13.14,42.19,0,1-.44,1-1.2,1-2.68,0-5.36-.09-8,0-1.41.06-1.86-.24-1.85-1.78.08-12.39,0-24.78,0-37.17a32.66,32.66,0,0,0-.59-7.32c-1.27-5.47-4-8.14-9.49-8.86-6.47-.83-12.05.82-16,6.46a4.92,4.92,0,0,0-.89,3c0,14.62,0,29.24.06,43.87,0,1.42-.25,1.94-1.8,1.85-2.67-.15-5.36-.08-8,0-.94,0-1.22-.24-1.22-1.2q0-30.56,0-61.11c0-1,.29-1.33,1.32-1.3,2.45.07,4.91.06,7.36,0,.86,0,1.17.26,1.23,1.11C218,238.87,218.25,241.47,218.51,244.51Z" transform="translate(-46.22 -109.7)"/><path class="cls-3" d="M283.49,244.52a25.91,25.91,0,0,1,5.77-6.49c8.61-6.61,22.42-5,28.34,3.43,3.14,4.46,4.12,9.63,4.17,14.92.13,13.73.06,27.46.1,41.18,0,1-.28,1.22-1.21,1.2-2.74-.06-5.48-.09-8.21,0-1.28,0-1.67-.27-1.66-1.62.06-12.45,0-24.9,0-37.34a32.37,32.37,0,0,0-.63-7.48c-1.24-5.27-3.91-7.92-9.29-8.66-6.39-.88-12,.66-15.95,6.16a5.52,5.52,0,0,0-1.08,3.41c0,14.56,0,29.13.06,43.7,0,1.44-.29,1.92-1.81,1.84-2.67-.14-5.36-.08-8,0-.95,0-1.21-.26-1.21-1.21q0-30.56,0-61.11c0-.85.1-1.32,1.15-1.29,2.51.07,5,.06,7.53,0,.87,0,1.16.28,1.22,1.12C283,238.88,283.22,241.48,283.49,244.52Z" transform="translate(-46.22 -109.7)"/><path class="cls-3" d="M514.2,244.45c.9-1.19,1.57-2.12,2.28-3,7.43-9.29,19.7-8.68,26.54-4.81,5.38,3.05,7.79,8.06,8.88,13.88a47.39,47.39,0,0,1,.7,8.83q0,18.92,0,37.84c0,1.16-.15,1.66-1.5,1.6-2.68-.13-5.36-.12-8,0-1.28.05-1.55-.33-1.54-1.57,0-12.45,0-24.89,0-37.34a32.67,32.67,0,0,0-.66-7.64c-1.21-5.09-3.89-7.75-9-8.51-6.52-1-12.18.57-16.23,6.22a5.25,5.25,0,0,0-1,3.25c0,14.62,0,29.25,0,43.87,0,1.42-.37,1.78-1.75,1.72-2.56-.11-5.14-.12-7.7,0-1.38.07-1.6-.42-1.6-1.66q.06-28.38,0-56.76c0-1.18.07-2.35,0-3.52s.22-1.78,1.61-1.69a45,45,0,0,0,6.36,0c1.58-.13,2,.52,2.05,1.92C513.75,239.39,514,241.72,514.2,244.45Z" transform="translate(-46.22 -109.7)"/><path class="cls-3" d="M799.56,244.52a26.31,26.31,0,0,1,5.77-6.49c8.62-6.61,22.42-5,28.34,3.43,3.15,4.46,4.13,9.63,4.18,14.91.13,13.73,0,27.46.09,41.19,0,.95-.27,1.22-1.21,1.2-2.73-.06-5.47-.09-8.2,0-1.27,0-1.67-.26-1.67-1.62.06-12.45,0-24.89,0-37.34a32.13,32.13,0,0,0-.6-7.32c-1.26-5.46-4-8.14-9.49-8.85-6.33-.82-11.84.74-15.78,6.19a5.5,5.5,0,0,0-1.09,3.4c0,14.57,0,29.14.06,43.7,0,1.44-.27,1.93-1.8,1.85-2.67-.15-5.36-.08-8,0-.94,0-1.2-.25-1.2-1.2q0-30.56,0-61.12c0-1,.31-1.32,1.33-1.29,2.4.07,4.8.08,7.2,0,1,0,1.34.29,1.41,1.28C799,239,799.3,241.53,799.56,244.52Z" transform="translate(-46.22 -109.7)"/><path class="cls-3" d="M607.89,253.93h-.67c-1.34,0-2.79.32-4-.1s-.73-2.21-1.2-3.34c-2.19-5.24-7.81-8.17-14.07-7.17-4.86.78-7.73,3.13-8.68,7.14a7.44,7.44,0,0,0,4.35,9.08c3.26,1.51,6.79,2.13,10.24,3A50.93,50.93,0,0,1,606,267.21c11.87,6.5,10.14,21.76.93,28.16-5.65,3.92-12,4.92-18.63,4.51-6.44-.4-12.22-2.38-16.77-7.2a18.12,18.12,0,0,1-5.2-12.16c0-1.15.28-1.56,1.48-1.52,2.67.08,5.36,0,8,0,.52,0,1.17-.19,1.2.72.25,7.55,6.8,10.84,12.92,11.13a15.91,15.91,0,0,0,8.45-1.57c3-1.6,4.87-4,4.91-7.58a8,8,0,0,0-4.77-7.64,41.93,41.93,0,0,0-9.64-3.18,49,49,0,0,1-13.19-5.09c-10.3-6-8.88-17.73-3.92-23.69a22.11,22.11,0,0,1,15.66-8c5.29-.46,10.52,0,15.27,2.61,6.09,3.4,10.15,8.26,10.54,15.58.07,1.19-.18,1.73-1.51,1.59S609.17,253.93,607.89,253.93Z" transform="translate(-46.22 -109.7)"/><path class="cls-3" d="M726,265.27c0-6.69,0-13.39,0-20.08,0-1.06-.22-1.47-1.37-1.42-2.28.09-4.58,0-6.86,0-1,0-1.5-.12-1.44-1.32.11-2,.09-4,0-6,0-1,.22-1.36,1.29-1.32,2.28.08,4.58,0,6.86,0,1.15,0,1.53-.27,1.51-1.47-.07-4.13,0-8.26-.05-12.39,0-1.19.32-1.51,1.49-1.47q3.93.13,7.86,0c1.29-.05,1.73.28,1.7,1.64-.1,4.07,0,8.15-.06,12.22,0,1.19.33,1.5,1.49,1.47,2.84-.08,5.69,0,8.54-.06,1.2,0,1.52.37,1.47,1.52-.09,2-.07,4,0,6,0,.89-.29,1.13-1.15,1.12-3,0-6,0-9,0-1,0-1.3.26-1.3,1.3,0,12.5,0,25,0,37.49,0,.56.06,1.12.11,1.67.42,4.71,3.57,7,8.23,6,2.17-.48,2.16-.48,2.55,1.71a22.23,22.23,0,0,0,.78,3.93c.62,1.71-.28,2.29-1.57,2.85-10.39,4.49-20.45-1.71-20.94-13.16-.29-6.74-.05-13.5-.05-20.25Z" transform="translate(-46.22 -109.7)"/><path class="cls-3" d="M693.7,252.84c0-14.66,0-29.33,0-44,0-1.41.39-1.8,1.77-1.74,2.56.11,5.13.09,7.69,0,1.21,0,1.64.23,1.61,1.54-.09,4,0,8,0,12.05q0,38.15,0,76.3c0,1.5-.4,1.85-1.83,1.78-2.56-.12-5.14-.11-7.7,0-1.3.06-1.54-.37-1.54-1.59Q693.73,275,693.7,252.84Z" transform="translate(-46.22 -109.7)"/><path class="cls-3" d="M191.3,267.1c0,10,0,20.07,0,30.11,0,1.22-.26,1.62-1.54,1.56-2.67-.11-5.35-.09-8,0-1.15,0-1.5-.28-1.49-1.47.06-7.42,0-14.83,0-22.25,0-12.71,0-25.43,0-38.14,0-1.36.3-1.84,1.73-1.77,2.62.12,5.24.09,7.86,0,1.21,0,1.47.37,1.47,1.51C191.28,246.8,191.3,257,191.3,267.1Z" transform="translate(-46.22 -109.7)"/><path class="cls-3" d="M772,267.09c0,10,0,20.08,0,30.11,0,1.23-.25,1.63-1.54,1.57-2.67-.11-5.35-.09-8,0-1.16,0-1.51-.28-1.5-1.47.06-7.3,0-14.61,0-21.91,0-12.83,0-25.65,0-38.48,0-1.35.29-1.84,1.73-1.77,2.62.12,5.24.09,7.86,0,1.2,0,1.47.37,1.47,1.51C772,246.8,772,257,772,267.09Z" transform="translate(-46.22 -109.7)"/><path class="cls-3" d="M766.07,225.05a6.53,6.53,0,1,1,6.53-6.48A6.53,6.53,0,0,1,766.07,225.05Z" transform="translate(-46.22 -109.7)"/><path class="cls-3" d="M191.89,219.15a6.53,6.53,0,1,1-6.52-6.49A6.54,6.54,0,0,1,191.89,219.15Z" transform="translate(-46.22 -109.7)"/><path class="cls-3" d="M903.09,236.15c0-.7-.22-1-1-1-2.29,0-4.58,0-6.86,0-.77,0-1,.24-1.15,1-.32,2.29-.74,4.56-1.13,6.85-.59-.14-.7-.56-.92-.85-6.35-8.75-17-9.65-24.58-6.65-6.17,2.43-9.73,7.43-12.16,13.32-3.34,8.09-3.76,16.57-3.16,25.15a36.09,36.09,0,0,0,4.73,15.69c7.76,13.43,27.11,13.07,34.53,3,.12-.17.23-.39.64-.27,0,3.22.11,6.48-.19,9.75-.71,7.63-5.1,11.89-12.78,12.34a36,36,0,0,1-17.88-3.34c-.86-.4-1.1-.3-1.24.66-.32,2.15-.73,4.29-1.21,6.4a1.64,1.64,0,0,0,1.08,2.19,39.48,39.48,0,0,0,24.43,3.31c7.85-1.47,13.77-5.56,16.84-13.18,1.66-4.11,2-8.44,2-12.81V237.15C903.09,236.82,903.07,236.48,903.09,236.15Zm-11.56,46.3c-3.72,6.7-10.15,9.49-17.55,7.59a12,12,0,0,1-7.53-5.7,23.71,23.71,0,0,1-3.23-10.44c-.56-7-.4-14,2.19-20.77,1.89-4.89,4.92-8.55,10.46-9.51a15.09,15.09,0,0,1,16,8.21,4,4,0,0,1,.26,1.79v13.22c0,4.47,0,8.93,0,13.39A4.42,4.42,0,0,1,891.53,282.45Z" transform="translate(-46.22 -109.7)"/><path class="cls-3" d="M489.61,259.12c-1.23-7.6-4.16-14.36-10.12-19.44-12.36-10.52-32.06-6.44-39.32,8.51-5.92,12.18-5.88,24.87-.25,37.17,4.47,9.76,12.52,14.66,23.35,14.62s18.41-5.13,23.17-14.69c2.88-5.78,3.71-12,3.7-19.05A58.61,58.61,0,0,0,489.61,259.12ZM476,282.66c-2.7,5.39-6.94,8.3-13,8.25s-10.28-3.06-12.88-8.48c-3.05-6.36-3.32-13.1-2.82-19.94A29.17,29.17,0,0,1,450.44,251c2.64-5,6.68-7.79,12.44-7.83s10,2.58,12.73,7.64,3.5,10.62,3.55,16.3C479.09,272.48,478.45,277.75,476,282.66Z" transform="translate(-46.22 -109.7)"/></svg>